<?xml version="1.0" encoding="utf-8"?>
<!-- Generator: Adobe Illustrator 16.0.0, SVG Export Plug-In . SVG Version: 6.00 Build 0)  -->
<!DOCTYPE svg PUBLIC "-//W3C//DTD SVG 1.1//EN" "http://www.w3.org/Graphics/SVG/1.1/DTD/svg11.dtd">
<svg version="1.1" id="Capa_1" xmlns="http://www.w3.org/2000/svg" xmlns:xlink="http://www.w3.org/1999/xlink" x="0px" y="0px"
	 width="130px" height="765px" viewBox="0 0 130 765" enable-background="new 0 0 130 765" xml:space="preserve">
<rect x="-1" fill="#D6D8C3" width="133" height="766"/>
<rect x="21" y="1" fill="#01A183" width="91" height="34"/>
<text transform="matrix(1.102 0 0 1 9.6924 597.5957)" font-family="'MyriadPro-Regular'" font-size="13">C    O    R    M    E    N</text>
<text transform="matrix(1.102 0 0 1 9.0005 623.5957)" font-family="'MyriadPro-Regular'" font-size="13">L  E  I  S  E  R  S  O  N</text>
<text transform="matrix(1.102 0 0 1 6.8618 650.5957)" font-family="'MyriadPro-Regular'" font-size="13">R     I     V     E     S     T</text>
<rect x="42" y="686" fill="#5D216C" width="47" height="44"/>
<text transform="matrix(1.102 0 0 1 50.9995 730)" fill="#FFFFFF" font-family="'MyriadPro-Regular'" font-size="21">HiII</text>
<text transform="matrix(1.0218 0 0 1 42.0005 715.333)" fill="#FFFFFF" font-family="'MyriadPro-Regular'" font-size="21">Graw</text>
<text transform="matrix(1.0193 0.0705 -0.069 0.9976 50.4985 702.5771)" fill="#FFFFFF" font-family="'MyriadPro-Regular'" font-size="26">M</text>
<text transform="matrix(1.0218 0 0 1 69 696.999)" fill="#FFFFFF" font-family="'MyriadPro-Regular'" font-size="22">c</text>
<text transform="matrix(-1.346898e-010 1 -1 -1.346898e-010 35 55.7031)" font-family="'MyriadPro-Semibold'" font-size="42.9633">ALGORITMOS</text>
<text transform="matrix(-1.346898e-010 1 -1 -1.346898e-010 81.1143 55.7031)" font-family="'MyriadPro-Semibold'" font-size="30">INTRODUCCIÓN  A  LOS</text>
</svg>
