<?xml version="1.0" encoding="utf-8"?>
<!-- Generator: Adobe Illustrator 16.0.0, SVG Export Plug-In . SVG Version: 6.00 Build 0)  -->
<!DOCTYPE svg PUBLIC "-//W3C//DTD SVG 1.1//EN" "http://www.w3.org/Graphics/SVG/1.1/DTD/svg11.dtd">
<svg version="1.1" id="Capa_1" xmlns="http://www.w3.org/2000/svg" xmlns:xlink="http://www.w3.org/1999/xlink" x="0px" y="0px"
	 width="100px" height="50px" viewBox="0 0 100 50" enable-background="new 0 0 100 50" xml:space="preserve">
<g>
	<path d="M92.407,2.047c2.526,2.525,2.046,7.096,0,9.143L55.834,47.764c-2.524,2.526-6.618,2.526-9.144,0
		c-2.525-2.524-2.047-7.097,0-9.145L83.263,2.047C85.79-0.478,89.883-0.478,92.407,2.047z"/>
	<path d="M7.895,2.222c2.524-2.525,7.097-2.047,9.144,0l36.573,36.572c2.524,2.526,2.524,6.62,0,9.145
		c-2.525,2.526-7.097,2.046-9.144,0L7.895,11.365C5.369,8.841,5.369,4.747,7.895,2.222z"/>
</g>
</svg>
