<?xml version="1.0" encoding="utf-8"?>
<!-- Generator: Adobe Illustrator 16.0.0, SVG Export Plug-In . SVG Version: 6.00 Build 0)  -->
<!DOCTYPE svg PUBLIC "-//W3C//DTD SVG 1.1//EN" "http://www.w3.org/Graphics/SVG/1.1/DTD/svg11.dtd">
<svg version="1.1" id="Capa_1" xmlns="http://www.w3.org/2000/svg" xmlns:xlink="http://www.w3.org/1999/xlink" x="0px" y="0px"
	 width="1080px" height="1080px" viewBox="0 0 1080 1080" enable-background="new 0 0 1080 1080" xml:space="preserve">
<g id="Capa_3">
	<rect x="211.667" y="683" fill="#AA9585" width="434.333" height="248.722"/>
	<rect y="683" display="none" fill="#FF0000" width="1080" height="255"/>
	<rect x="216.089" y="683" fill="#603813" width="2.414" height="248.722"/>
	<rect x="225.339" y="683" fill="#603813" width="2.414" height="248.722"/>
	<rect x="234.589" y="683" fill="#603813" width="2.414" height="248.722"/>
	<rect x="243.839" y="683" fill="#603813" width="2.414" height="248.722"/>
	<rect x="253.089" y="683" fill="#603813" width="2.413" height="248.722"/>
	<rect x="262.338" y="683" fill="#603813" width="2.414" height="248.722"/>
	<rect x="271.588" y="683" fill="#603813" width="2.414" height="248.722"/>
	<rect x="280.838" y="683" fill="#603813" width="2.414" height="248.722"/>
	<rect x="290.088" y="683" fill="#603813" width="2.412" height="248.722"/>
	<rect x="299.338" y="683" fill="#603813" width="2.411" height="248.722"/>
	<rect x="308.587" y="683" fill="#603813" width="2.413" height="248.722"/>
	<rect x="317.837" y="683" fill="#603813" width="2.413" height="248.722"/>
	<rect x="327.087" y="683" fill="#603813" width="2.412" height="248.722"/>
	<rect x="336.337" y="683" fill="#603813" width="2.412" height="248.722"/>
	<rect x="345.585" y="683" fill="#603813" width="2.414" height="248.722"/>
	<rect x="354.835" y="683" fill="#603813" width="2.413" height="248.722"/>
	<rect x="364.085" y="683" fill="#603813" width="2.414" height="248.722"/>
	<rect x="373.335" y="683" fill="#603813" width="2.413" height="248.722"/>
	<rect x="382.584" y="683" fill="#603813" width="2.414" height="248.722"/>
	<rect x="391.834" y="683" fill="#603813" width="2.414" height="248.722"/>
	<rect x="401.083" y="683" fill="#603813" width="2.415" height="248.722"/>
	<rect x="410.334" y="683" fill="#603813" width="2.412" height="248.722"/>
	<rect x="419.584" y="683" fill="#603813" width="2.411" height="248.722"/>
	<rect x="428.834" y="683" fill="#603813" width="2.411" height="248.722"/>
	<rect x="438.083" y="683" fill="#603813" width="2.413" height="248.722"/>
	<rect x="447.333" y="683" fill="#603813" width="2.413" height="248.722"/>
	<rect x="456.583" y="683" fill="#603813" width="2.412" height="248.722"/>
	<rect x="465.831" y="683" fill="#603813" width="2.413" height="248.722"/>
	<rect x="475.081" y="683" fill="#603813" width="2.413" height="248.722"/>
	<rect x="484.331" y="683" fill="#603813" width="2.413" height="248.722"/>
	<rect x="493.581" y="683" fill="#603813" width="2.413" height="248.722"/>
	<g>
		<rect x="-222.666" y="683" fill="#AA9585" width="434.333" height="248.722"/>
		<rect x="-218.244" y="683" fill="#603813" width="2.414" height="248.722"/>
		<rect x="-208.994" y="683" fill="#603813" width="2.414" height="248.722"/>
		<rect x="-199.744" y="683" fill="#603813" width="2.414" height="248.722"/>
		<rect x="-190.494" y="683" fill="#603813" width="2.414" height="248.722"/>
		<rect x="-181.244" y="683" fill="#603813" width="2.413" height="248.722"/>
		<rect x="-171.995" y="683" fill="#603813" width="2.414" height="248.722"/>
		<rect x="-162.745" y="683" fill="#603813" width="2.414" height="248.722"/>
		<rect x="-153.495" y="683" fill="#603813" width="2.414" height="248.722"/>
		<rect x="-144.245" y="683" fill="#603813" width="2.412" height="248.722"/>
		<rect x="-134.995" y="683" fill="#603813" width="2.411" height="248.722"/>
		<rect x="-125.746" y="683" fill="#603813" width="2.413" height="248.722"/>
		<rect x="-116.496" y="683" fill="#603813" width="2.413" height="248.722"/>
		<rect x="-107.246" y="683" fill="#603813" width="2.412" height="248.722"/>
		<rect x="-97.996" y="683" fill="#603813" width="2.412" height="248.722"/>
		<rect x="-88.748" y="683" fill="#603813" width="2.414" height="248.722"/>
		<rect x="-79.498" y="683" fill="#603813" width="2.413" height="248.722"/>
		<rect x="-70.248" y="683" fill="#603813" width="2.414" height="248.722"/>
		<rect x="-60.998" y="683" fill="#603813" width="2.413" height="248.722"/>
		<rect x="-51.749" y="683" fill="#603813" width="2.414" height="248.722"/>
		<rect x="-42.499" y="683" fill="#603813" width="2.414" height="248.722"/>
		<rect x="-33.25" y="683" fill="#603813" width="2.415" height="248.722"/>
		<rect x="-23.999" y="683" fill="#603813" width="2.412" height="248.722"/>
		<rect x="-14.749" y="683" fill="#603813" width="2.411" height="248.722"/>
		<rect x="-5.499" y="683" fill="#603813" width="2.411" height="248.722"/>
		<rect x="3.75" y="683" fill="#603813" width="2.413" height="248.722"/>
		<rect x="13" y="683" fill="#603813" width="2.413" height="248.722"/>
		<rect x="22.25" y="683" fill="#603813" width="2.412" height="248.722"/>
		<rect x="31.498" y="683" fill="#603813" width="2.413" height="248.722"/>
		<rect x="40.748" y="683" fill="#603813" width="2.413" height="248.722"/>
		<rect x="49.998" y="683" fill="#603813" width="2.413" height="248.722"/>
		<rect x="59.248" y="683" fill="#603813" width="2.413" height="248.722"/>
		<rect x="68.498" y="683" fill="#603813" width="2.413" height="248.722"/>
		<rect x="77.747" y="683" fill="#603813" width="2.414" height="248.722"/>
		<rect x="86.996" y="683" fill="#603813" width="2.415" height="248.722"/>
		<rect x="96.247" y="683" fill="#603813" width="2.413" height="248.722"/>
		<rect x="105.497" y="683" fill="#603813" width="2.412" height="248.722"/>
		<rect x="114.747" y="683" fill="#603813" width="2.412" height="248.722"/>
		<rect x="123.996" y="683" fill="#603813" width="2.412" height="248.722"/>
		<rect x="133.246" y="683" fill="#603813" width="2.413" height="248.722"/>
		<rect x="142.495" y="683" fill="#603813" width="2.413" height="248.722"/>
		<rect x="151.745" y="683" fill="#603813" width="2.412" height="248.722"/>
		<rect x="160.994" y="683" fill="#603813" width="2.413" height="248.722"/>
		<rect x="170.244" y="683" fill="#603813" width="2.413" height="248.722"/>
		<rect x="179.494" y="683" fill="#603813" width="2.412" height="248.722"/>
		<rect x="188.744" y="683" fill="#603813" width="2.413" height="248.722"/>
		<rect x="197.994" y="683" fill="#603813" width="2.413" height="248.722"/>
		<rect x="207.242" y="683" fill="#603813" width="2.415" height="248.722"/>
	</g>
	<rect x="645.667" y="683" fill="#AA9585" width="434.333" height="248.722"/>
	<polygon opacity="0.3" fill="#EFF8F9" enable-background="new    " points="290.42,995 531,925 531,683 1168.561,683 1189,1201 
		-60.998,1193 -31,995 	"/>
	<rect x="650.089" y="683" fill="#603813" width="2.414" height="248.722"/>
	<rect x="659.339" y="683" fill="#603813" width="2.414" height="248.722"/>
	<rect x="668.589" y="683" fill="#603813" width="2.414" height="248.722"/>
	<rect x="677.839" y="683" fill="#603813" width="2.414" height="248.722"/>
	<rect x="687.089" y="683" fill="#603813" width="2.413" height="248.722"/>
	<rect x="696.338" y="683" fill="#603813" width="2.414" height="248.722"/>
	<rect x="705.588" y="683" fill="#603813" width="2.414" height="248.722"/>
	<rect x="714.838" y="683" fill="#603813" width="2.414" height="248.722"/>
	<rect x="724.088" y="683" fill="#603813" width="2.412" height="248.722"/>
	<rect x="733.338" y="683" fill="#603813" width="2.411" height="248.722"/>
	<rect x="742.587" y="683" fill="#603813" width="2.413" height="248.722"/>
	<rect x="751.837" y="683" fill="#603813" width="2.413" height="248.722"/>
	<rect x="761.087" y="683" fill="#603813" width="2.412" height="248.722"/>
	<rect x="770.337" y="683" fill="#603813" width="2.412" height="248.722"/>
	<rect x="779.585" y="683" fill="#603813" width="2.414" height="248.722"/>
	<rect x="788.835" y="683" fill="#603813" width="2.413" height="248.722"/>
	<rect x="798.085" y="683" fill="#603813" width="2.414" height="248.722"/>
	<rect x="807.335" y="683" fill="#603813" width="2.413" height="248.722"/>
	<rect x="816.584" y="683" fill="#603813" width="2.414" height="248.722"/>
	<rect x="825.834" y="683" fill="#603813" width="2.414" height="248.722"/>
	<rect x="835.083" y="683" fill="#603813" width="2.415" height="248.722"/>
	<rect x="844.334" y="683" fill="#603813" width="2.412" height="248.722"/>
	<rect x="853.584" y="683" fill="#603813" width="2.411" height="248.722"/>
	<rect x="862.834" y="683" fill="#603813" width="2.411" height="248.722"/>
	<rect x="872.083" y="683" fill="#603813" width="2.413" height="248.722"/>
	<rect x="881.333" y="683" fill="#603813" width="2.413" height="248.722"/>
	<rect x="890.583" y="683" fill="#603813" width="2.412" height="248.722"/>
	<rect x="899.831" y="683" fill="#603813" width="2.413" height="248.722"/>
	<rect x="909.081" y="683" fill="#603813" width="2.413" height="248.722"/>
	<rect x="918.331" y="683" fill="#603813" width="2.413" height="248.722"/>
	<rect x="927.581" y="683" fill="#603813" width="2.413" height="248.722"/>
	<rect x="936.831" y="683" fill="#603813" width="2.413" height="248.722"/>
	<rect x="946.08" y="683" fill="#603813" width="2.414" height="248.722"/>
	<rect x="955.329" y="683" fill="#603813" width="2.415" height="248.722"/>
	<rect x="964.58" y="683" fill="#603813" width="2.413" height="248.722"/>
	<rect x="973.83" y="683" fill="#603813" width="2.412" height="248.722"/>
	<rect x="983.08" y="683" fill="#603813" width="2.412" height="248.722"/>
	<rect x="992.329" y="683" fill="#603813" width="2.412" height="248.722"/>
	<rect x="1001.579" y="683" fill="#603813" width="2.413" height="248.722"/>
	<rect x="1010.828" y="683" fill="#603813" width="2.413" height="248.722"/>
	<rect x="1020.078" y="683" fill="#603813" width="2.412" height="248.722"/>
	<rect x="1029.327" y="683" fill="#603813" width="2.413" height="248.722"/>
	<rect x="1038.577" y="683" fill="#603813" width="2.413" height="248.722"/>
	<rect x="1047.827" y="683" fill="#603813" width="2.412" height="248.722"/>
	<rect x="1057.077" y="683" fill="#603813" width="2.413" height="248.722"/>
	<rect x="1066.327" y="683" fill="#603813" width="2.413" height="248.722"/>
	<rect x="1075.575" y="683" fill="#603813" width="2.415" height="248.722"/>
	<rect x="502.831" y="683" fill="#603813" width="2.413" height="248.722"/>
	<rect x="512.08" y="683" fill="#603813" width="2.414" height="248.722"/>
	<rect x="521.329" y="683" fill="#603813" width="2.415" height="248.722"/>
	<rect x="530.58" y="683" fill="#603813" width="2.413" height="248.722"/>
	<rect x="539.83" y="683" fill="#603813" width="2.412" height="248.722"/>
	<rect x="549.08" y="683" fill="#603813" width="2.412" height="248.722"/>
	<rect x="558.329" y="683" fill="#603813" width="2.412" height="248.722"/>
	<rect x="567.579" y="683" fill="#603813" width="2.413" height="248.722"/>
	<rect x="576.828" y="683" fill="#603813" width="2.413" height="248.722"/>
	<rect x="586.078" y="683" fill="#603813" width="2.412" height="248.722"/>
	<rect x="595.327" y="683" fill="#603813" width="2.413" height="248.722"/>
	<rect x="604.577" y="683" fill="#603813" width="2.413" height="248.722"/>
	<rect x="613.827" y="683" fill="#603813" width="2.412" height="248.722"/>
	<rect x="623.077" y="683" fill="#603813" width="2.413" height="248.722"/>
	<rect x="632.327" y="683" fill="#603813" width="2.413" height="248.722"/>
	<rect x="641.575" y="683" fill="#603813" width="2.415" height="248.722"/>
	<rect y="925" fill="#917460" width="1080" height="155"/>
	<polygon opacity="0.3" fill="#EFF8F9" enable-background="new    " points="290.42,995 531,925 1114.563,925 1178.374,931.722 
		1189,1201 -60.998,1193 -31,995 	"/>
</g>
<g id="Capa_2" display="none">
	<rect x="720" y="720" display="inline" fill="#32FF00" width="360" height="370"/>
	<g display="inline">
		<path fill="#414241" d="M796.857,1005.037l-23.23,26.61c0,0-1.235,1.521-1.705,3.15c-0.471,1.633-0.589,4.235-0.589,4.235
			l258.832,0.516c0,0,0.264-4.08-0.397-5.802c-0.659-1.725-3.177-3.732-3.177-3.732l-22.627-24.979L796.857,1005.037
			L796.857,1005.037z"/>
		<polygon fill="#343534" points="969.383,1010.519 981.704,1031.416 1019.799,1031.416 1002.817,1010.519 		"/>
		<polygon fill="#484948" points="970.059,1010.519 981.645,1030.158 1018.865,1030.197 1002.817,1010.519 		"/>
		<polygon fill="#343534" points="797.533,1010.519 782.001,1030.215 782.001,1031.416 941.334,1031.416 941.334,1030.361 
			935.771,1010.519 		"/>
		<polygon fill="#484948" points="797.505,1010.519 781.92,1030.158 941.434,1030.278 935.771,1010.519 		"/>
		<polygon fill="#343534" points="976.334,1030.281 976.334,1031.416 948.477,1031.416 947,1027.615 947,1025.952 955.722,1025.907 
			954.694,1024.025 954.768,1022.852 962.972,1022.852 964.943,1026.051 974.284,1026.138 		"/>
		<polygon fill="#484948" points="976.352,1030.281 948.77,1030.154 947.063,1025.952 955.752,1025.907 956.591,1025.868 
			954.768,1022.852 962.972,1022.852 964.943,1026.051 974.294,1026.138 		"/>
		<polygon fill="#343534" points="970,1017.95 970,1019.084 942.123,1019.084 939.001,1011.559 939.001,1010.519 948.416,1010.519 
			965.634,1010.519 		"/>
		<polygon fill="#484948" points="969.999,1017.896 942.417,1017.739 938.946,1010.519 965.634,1010.519 		"/>
		<polygon fill="#484948" points="799.445,1008.464 801.063,1006.433 994.143,1006.603 995.67,1008.464 		"/>
		<polygon fill="#343534" points="799.563,1009.713 995.77,1009.791 995.67,1008.464 799.445,1008.464 		"/>
	</g>
	<path display="inline" opacity="0.1" fill="#1D1E1D" enable-background="new    " d="M771.583,1038.61c0,0,0.083-3.532,1.125-4.774
		c1.041-1.242,2.515-1.104,2.515-1.104l97.225,0.284l139.109,5.597L771.583,1038.61L771.583,1038.61z"/>
	<rect x="742.333" y="751.86" display="inline" fill="#575957" width="314.668" height="183.974"/>
	<path display="inline" fill="#DDE8DD" d="M916.889,1061.563"/>
	<g display="inline">
		<g>
			<path fill="#323332" d="M829.977,970.974c-0.318,0.063-0.83,0.146-0.83,0.146H812.28c0,0-0.437-0.083-0.65-0.133
				c-0.216-0.049-0.295-0.228-0.295-0.228v-3.902c0,0,10.777-8.738,27.999-12.432c17.223-3.69,35.667-3.86,35.667-3.86h24.667v7.674
				c0,0-27.854-0.893-43.428,1.628c-15.572,2.517-23.479,8.036-23.479,8.036l-2.432,2.872
				C830.33,970.775,830.264,970.919,829.977,970.974z"/>
			<path fill="#3F443F" d="M829.977,969.604c-0.318,0.062-0.83,0.146-0.83,0.146H812.28c0,0-0.437-0.081-0.65-0.132
				c-0.216-0.049-0.295-0.229-0.295-0.229v-3.521l1.729-1.647c0,0,9.049-7.472,26.271-11.163c17.224-3.688,35.667-3.86,35.667-3.86
				h24.667v7.674c0,0-27.854-0.892-43.428,1.628c-15.572,2.519-23.878,8.771-23.878,8.771l-2.031,2.141
				C830.33,969.405,830.264,969.548,829.977,969.604z"/>
		</g>
		<g>
			<path fill="#323332" d="M969.025,970.974c0.316,0.063,0.828,0.146,0.828,0.146h16.865c0,0,0.437-0.083,0.65-0.133
				c0.218-0.049,0.297-0.228,0.297-0.228v-3.902c0,0-10.779-8.738-28.001-12.432c-17.223-3.69-35.666-3.86-35.666-3.86h-24.668
				v7.674c0,0,27.854-0.893,43.427,1.628c15.574,2.517,23.48,8.036,23.48,8.036l2.429,2.872
				C968.669,970.775,968.738,970.919,969.025,970.974z"/>
			<path fill="#3F443F" d="M969.025,969.604c0.316,0.062,0.828,0.146,0.828,0.146h16.865c0,0,0.437-0.081,0.65-0.132
				c0.218-0.049,0.297-0.229,0.297-0.229v-3.521l-1.729-1.647c0,0-9.052-7.472-26.271-11.163c-17.223-3.688-35.666-3.86-35.666-3.86
				h-24.668v7.674c0,0,27.854-0.892,43.427,1.628c15.574,2.519,23.879,8.771,23.879,8.771l2.03,2.141
				C968.669,969.405,968.738,969.548,969.025,969.604z"/>
		</g>
	</g>
	<path display="inline" fill="#323332" d="M924.196,952.985c-0.089,0.033-0.27-0.022-0.27-0.022H875.18c0,0-0.08,0.058-0.14,0.029
		c-0.063-0.027-0.041-0.024-0.041-0.024v-11.197c0,0-0.028-0.046,0.05-0.076c0.077-0.032,0.18-0.034,0.18-0.034h48.681
		c0,0,0.196,0,0.294,0.038c0.098,0.04,0.131,0.078,0.131,0.078v11.201C924.333,952.977,924.276,952.952,924.196,952.985z"/>
	<path display="inline" fill="#575957" d="M1058.209,749.035c-0.624-0.688-1.513-0.602-1.513-0.602h-314.03
		c0,0-0.916-0.043-1.417,0.516c-0.499,0.557-0.582,1.256-0.582,1.256v194.388c0,0,0.142,0.908,0.528,1.398
		c0.388,0.491,1.166,0.463,1.166,0.463h314.473c0,0,0.766,0.014,1.339-0.6c0.518-0.554,0.493-1.119,0.493-1.119V750.29
		C1058.666,750.29,1058.834,749.719,1058.209,749.035z M1056.001,754.563v175.466c0,0-0.05,0.584-0.556,1.081
		c-0.564,0.552-1.385,0.609-1.385,0.609H745c0,0-0.766-0.045-1.146-0.486c-0.382-0.441-0.521-1.333-0.521-1.333V754.486
		c0,0,0.082-0.632,0.574-1.134c0.489-0.505,1.391-0.466,1.391-0.466h308.629c0,0,0.94-0.075,1.557,0.541
		C1056.095,754.049,1056.001,754.563,1056.001,754.563z"/>
	<g display="inline">
		<path fill="#3F443F" d="M1048.667,1020.112c0,0,5.501,1.992,11.833,1.51c6.334-0.483,10.723-4.938,12.167-7.677
			c1.445-2.741-0.999-13.021-7.832-16.616c-6.835-3.598-15.502-3.928-15.502-3.928s-10.888,0.472-15.443,2.343
			c-4.556,1.872-6.556,3.241-7.556,4.84c-1,1.6-0.89,2.855,0.667,5.14c1.556,2.284,6.222,6.396,9.778,8.339
			C1040.335,1016.001,1048.667,1020.112,1048.667,1020.112z"/>
		<path fill="#1B1C1B" d="M1029.418,1002.382c0,0,7.083-1.628,12.25-0.855c5.166,0.771,8.999,3.056,11.332,6.023
			c2.334,2.969,3.709,9.747,1.501,11.13c-1.125,0.703-2.125,1.063-2.723,1.063c-0.548,0-1.985,0-3.167-0.517
			c-0.756-0.325-6.818-3.609-8.943-4.767s-7.658-5.455-8.834-6.51c-1.313-1.18-3.403-3.126-3.125-4.154
			C1027.986,1002.768,1029.418,1002.382,1029.418,1002.382z"/>
		<path fill="#1B1C1B" d="M1034.532,995.504c0,0,4.301-0.659,5.177-0.444c0.875,0.215,1.073,0.321,1.073,0.321s0.146,0.192,0,0.203
			c-0.146,0.011-0.813-0.214-1.386-0.225c-0.573-0.013-5.411,0.347-5.411,0.347L1034.532,995.504z"/>
	</g>
</g>
<g id="Capa_1_1_" display="none">
	<rect display="inline" opacity="0.2" fill="#E25454" enable-background="new    " width="360" height="360"/>
	<rect x="360" y="360" display="inline" opacity="0.2" fill="#E25454" enable-background="new    " width="360" height="360"/>
	<rect y="720" display="inline" opacity="0.2" fill="#E25454" enable-background="new    " width="360" height="360"/>
	<rect x="720" y="720" display="inline" opacity="0.2" fill="#E25454" enable-background="new    " width="360" height="360"/>
	<rect x="720" y="1" display="inline" opacity="0.2" fill="#E25454" enable-background="new    " width="360" height="360"/>
	<rect x="-31" y="-57" display="inline" opacity="0.3" fill="#FF6700" enable-background="new    " width="321" height="1052"/>
	<rect x="347" y="146" display="inline" fill="#FF6700" width="870" height="174"/>
</g>
<g id="Capa_5" display="none">
	<rect x="346.5" y="146.5" display="inline" fill="#334547" stroke="#253233" stroke-miterlimit="10" width="111" height="76"/>
	<rect x="346.5" y="244.5" display="inline" fill="#334547" stroke="#253233" stroke-miterlimit="10" width="111" height="76"/>
	<rect x="498.5" y="146.5" display="inline" fill="#334547" stroke="#253233" stroke-miterlimit="10" width="111" height="76"/>
	<rect x="498.5" y="244.5" display="inline" fill="#334547" stroke="#253233" stroke-miterlimit="10" width="111" height="76"/>
	<rect x="650.5" y="146.5" display="inline" fill="#334547" stroke="#253233" stroke-miterlimit="10" width="111" height="76"/>
	<rect x="650.5" y="244.5" display="inline" fill="#334547" stroke="#253233" stroke-miterlimit="10" width="111" height="76"/>
	<rect x="802.5" y="146.5" display="inline" fill="#334547" stroke="#253233" stroke-miterlimit="10" width="111" height="76"/>
	<rect x="802.5" y="244.5" display="inline" fill="#334547" stroke="#253233" stroke-miterlimit="10" width="111" height="76"/>
	<rect x="954.5" y="146.5" display="inline" fill="#334547" stroke="#253233" stroke-miterlimit="10" width="111" height="76"/>
	<rect x="954.5" y="244.5" display="inline" fill="#334547" stroke="#253233" stroke-miterlimit="10" width="111" height="76"/>
	<rect x="350.5" y="149.5" display="inline" fill="#D4FCEA" stroke="#253233" stroke-miterlimit="10" width="103" height="70"/>
	<rect x="350.5" y="247.5" display="inline" fill="#D4FCEA" stroke="#253233" stroke-miterlimit="10" width="103" height="70"/>
	<rect x="502.5" y="149.5" display="inline" fill="#D4FCEA" stroke="#253233" stroke-miterlimit="10" width="103" height="70"/>
	<rect x="502.5" y="247.5" display="inline" fill="#D4FCEA" stroke="#253233" stroke-miterlimit="10" width="103" height="70"/>
	<rect x="654.5" y="149.5" display="inline" fill="#D4FCEA" stroke="#253233" stroke-miterlimit="10" width="103" height="70"/>
	<rect x="654.5" y="247.5" display="inline" fill="#D4FCEA" stroke="#253233" stroke-miterlimit="10" width="103" height="70"/>
	<rect x="806.5" y="149.5" display="inline" fill="#D4FCEA" stroke="#253233" stroke-miterlimit="10" width="103" height="70"/>
	<rect x="806.5" y="247.5" display="inline" fill="#D4FCEA" stroke="#253233" stroke-miterlimit="10" width="103" height="70"/>
	<rect x="958.5" y="149.5" display="inline" fill="#D4FCEA" stroke="#253233" stroke-miterlimit="10" width="103" height="70"/>
	<rect x="958.5" y="247.5" display="inline" fill="#D4FCEA" stroke="#253233" stroke-miterlimit="10" width="103" height="70"/>
</g>
<g id="LUZ" display="none">
	<polygon display="inline" opacity="0.5" fill="#EFF8F9" enable-background="new    " points="351,149.979 351,186.438 425.5,219 
		453,219 453,191.25 	"/>
	<polygon display="inline" opacity="0.5" fill="#EFF8F9" enable-background="new    " points="351,247.979 351,284.438 425.5,317 
		453,317 453,289.25 	"/>
	<polygon display="inline" opacity="0.5" fill="#EFF8F9" enable-background="new    " points="503,149.979 503,186.438 577.5,219 
		605,219 605,191.25 	"/>
	<polygon display="inline" opacity="0.5" fill="#EFF8F9" enable-background="new    " points="503,247.979 503,284.438 577.5,317 
		605,317 605,289.25 	"/>
	<polygon display="inline" opacity="0.5" fill="#EFF8F9" enable-background="new    " points="655,149.979 655,186.438 729.5,219 
		757,219 757,191.25 	"/>
	<polygon display="inline" opacity="0.5" fill="#EFF8F9" enable-background="new    " points="655,247.979 655,284.438 729.5,317 
		757,317 757,289.25 	"/>
	<polygon display="inline" opacity="0.5" fill="#EFF8F9" enable-background="new    " points="807,149.979 807,186.438 881.5,219 
		909,219 909,191.25 	"/>
	<polygon display="inline" opacity="0.5" fill="#EFF8F9" enable-background="new    " points="807,247.979 807,284.438 881.5,317 
		909,317 909,289.25 	"/>
	<polygon display="inline" opacity="0.5" fill="#EFF8F9" enable-background="new    " points="959,149.979 959,186.438 1033.5,219 
		1061,219 1061,191.25 	"/>
	<polygon display="inline" opacity="0.5" fill="#EFF8F9" enable-background="new    " points="959,247.979 959,284.438 1033.5,317 
		1061,317 1061,289.25 	"/>
	<polygon display="inline" opacity="0.3" fill="#EFF8F9" enable-background="new    " points="531,683 531,486 530.58,282.5 
		1189,415 1189,683 	"/>
</g>
</svg>
