<?xml version="1.0" encoding="utf-8"?>
<!-- Generator: Adobe Illustrator 16.0.0, SVG Export Plug-In . SVG Version: 6.00 Build 0)  -->
<!DOCTYPE svg PUBLIC "-//W3C//DTD SVG 1.1//EN" "http://www.w3.org/Graphics/SVG/1.1/DTD/svg11.dtd">
<svg version="1.1" id="Capa_1" xmlns="http://www.w3.org/2000/svg" xmlns:xlink="http://www.w3.org/1999/xlink" x="0px" y="0px"
	 width="40px" height="255px" viewBox="0 0 40 255" enable-background="new 0 0 40 255" xml:space="preserve">
<image overflow="visible" width="303" height="500" xlink:href="FB6B077.jpg"  transform="matrix(0.5996 0 0 0.5996 62.667 -38.4512)">
</image>
<rect fill="#3B3829" width="40" height="24"/>
<rect y="34" fill="#F0F1EB" width="40" height="190"/>
<rect y="224" fill="#2B2A28" width="40" height="31"/>
<rect x="6.128" y="46.5" fill="none" width="21.557" height="121"/>
<text transform="matrix(-1.346898e-010 1 -1 -1.346898e-010 16.3247 46.5)" font-family="'MyriadPro-Semibold'" font-size="16">Código Limpio</text>
<rect x="-7" y="16" transform="matrix(-0.7071 -0.7071 0.7071 -0.7071 -2.1321 34.1168)" fill="#A5A196" width="26" height="3"/>
<rect x="-2.941" y="10.685" transform="matrix(-0.7071 -0.7071 0.7071 -0.7071 19.8669 32.5993)" fill="#A5A196" width="39.252" height="2.999"/>
<rect x="8.059" y="4.685" transform="matrix(-0.7071 -0.7071 0.7071 -0.7071 42.8876 30.135)" fill="#A5A196" width="39.252" height="2.999"/>
<rect y="24" fill="#FFD75D" width="40" height="10"/>
<rect x="-0.167" y="25.625" fill="none" width="40.167" height="8.375"/>
<text transform="matrix(1 0 0 1 7.6182 32.0151)" font-family="'MyriadPro-Regular'" font-size="9">Martin</text>
<rect x="-0.125" y="242.085" fill="none" width="40.021" height="4.663"/>
<text transform="matrix(1 0 0 1 7.8027 246.3447)" fill="#DD1414" font-family="'MyriadPro-Regular'" font-size="6">PRENTICE</text>
<rect x="0.063" y="247.331" fill="none" width="39.834" height="4.663"/>
<text transform="matrix(1 0 0 1 14.4604 250.8809)" fill="#FFFFFF" font-family="'MyriadPro-Regular'" font-size="5">HALL</text>
<circle fill="#DD1414" cx="17.875" cy="230.75" r="1.5"/>
<circle fill="#DD1414" cx="21.875" cy="230.75" r="1.5"/>
<circle fill="#DD1414" cx="17.875" cy="234.75" r="1.5"/>
<circle fill="#DD1414" cx="21.875" cy="234.75" r="1.5"/>
<circle fill="#DD1414" cx="17.875" cy="238.75" r="1.5"/>
<circle fill="#FFFFFF" cx="21.875" cy="238.75" r="1.5"/>
<path fill="#DD1414" d="M20.622,235.574c0,0-0.355-0.402-0.73-0.402s-0.73,0.349-0.73,0.349v-1.539c0,0,0.378,0.253,0.722,0.253
	s0.739-0.309,0.739-0.309V235.574z"/>
</svg>
