<?xml version="1.0" encoding="utf-8"?>
<!-- Generator: Adobe Illustrator 16.0.0, SVG Export Plug-In . SVG Version: 6.00 Build 0)  -->
<!DOCTYPE svg PUBLIC "-//W3C//DTD SVG 1.1//EN" "http://www.w3.org/Graphics/SVG/1.1/DTD/svg11.dtd">
<svg version="1.1" id="Capa_1" xmlns="http://www.w3.org/2000/svg" xmlns:xlink="http://www.w3.org/1999/xlink" x="0px" y="0px"
	 width="40px" height="255px" viewBox="0 0 40 255" enable-background="new 0 0 40 255" xml:space="preserve">
<rect fill="#2B2A28" width="40" height="24"/>
<rect y="34" fill="#F0F1EB" width="40" height="190"/>
<rect y="224" fill="#2B2A28" width="40" height="31"/>
<rect x="6.128" y="46.5" fill="none" width="21.558" height="87"/>
<text transform="matrix(-1.346898e-010 1 -1 -1.346898e-010 16.3242 46.5)" font-family="'MyriadPro-Semibold'" font-size="16">Arquitectura Limpia</text>
<rect y="24" fill="#FFD75D" width="40" height="10"/>
<rect x="-0.167" y="25.625" fill="none" width="40.167" height="8.375"/>
<text transform="matrix(1 0 0 1 7.6182 32.0146)" font-family="'MyriadPro-Regular'" font-size="9">Martin</text>
<rect x="-0.125" y="242.085" fill="none" width="40.021" height="4.663"/>
<text transform="matrix(1 0 0 1 7.8027 246.3447)" fill="#DD1414" font-family="'MyriadPro-Regular'" font-size="6">PRENTICE</text>
<rect x="0.063" y="247.331" fill="none" width="39.833" height="4.663"/>
<text transform="matrix(1 0 0 1 14.46 250.8809)" fill="#FFFFFF" font-family="'MyriadPro-Regular'" font-size="5">HALL</text>
<circle fill="#DD1414" cx="17.875" cy="230.75" r="1.5"/>
<circle fill="#DD1414" cx="21.875" cy="230.75" r="1.5"/>
<circle fill="#DD1414" cx="17.875" cy="234.75" r="1.5"/>
<circle fill="#DD1414" cx="21.875" cy="234.75" r="1.5"/>
<circle fill="#DD1414" cx="17.875" cy="238.75" r="1.5"/>
<circle fill="#FFFFFF" cx="21.875" cy="238.75" r="1.5"/>
<path fill="#DD1414" d="M20.622,235.574c0,0-0.355-0.402-0.73-0.402s-0.73,0.35-0.73,0.35v-1.539c0,0,0.378,0.252,0.722,0.252
	c0.344,0,0.739-0.309,0.739-0.309L20.622,235.574L20.622,235.574z"/>
</svg>
