<?xml version="1.0" encoding="utf-8"?>
<!-- Generator: Adobe Illustrator 16.0.0, SVG Export Plug-In . SVG Version: 6.00 Build 0)  -->
<!DOCTYPE svg PUBLIC "-//W3C//DTD SVG 1.1//EN" "http://www.w3.org/Graphics/SVG/1.1/DTD/svg11.dtd">
<svg version="1.1" id="Capa_1" xmlns="http://www.w3.org/2000/svg" xmlns:xlink="http://www.w3.org/1999/xlink" x="0px" y="0px"
	 width="40px" height="255px" viewBox="0 0 40 255" enable-background="new 0 0 40 255" xml:space="preserve">
<rect x="-10.5" y="-14" fill="#FFFFFF" stroke="#000000" stroke-miterlimit="10" width="62" height="119.5"/>
<rect y="99.665" fill="#36A0E1" width="40" height="124.335"/>
<rect y="224" fill="#2B2A28" width="40" height="31"/>
<rect x="6.128" y="46.5" fill="none" width="21.558" height="87"/>
<text transform="matrix(-1.346898e-010 1 -1 -1.346898e-010 15.3242 46.5)" fill="#36A0E1" font-family="'MyriadPro-Semibold'" font-size="20">JAVA</text>
<rect x="-0.167" y="25.625" fill="none" width="40.167" height="8.375"/>
<rect x="-0.125" y="242.085" fill="none" width="40.021" height="4.663"/>
<rect x="0.063" y="247.331" fill="none" width="39.833" height="4.663"/>
<circle fill="#DD1414" cx="17.875" cy="230.75" r="1.5"/>
<circle fill="#DD1414" cx="21.875" cy="230.75" r="1.5"/>
<circle fill="#DD1414" cx="17.875" cy="234.75" r="1.5"/>
<circle fill="#DD1414" cx="21.875" cy="234.75" r="1.5"/>
<circle fill="#DD1414" cx="17.875" cy="238.75" r="1.5"/>
<circle fill="#FFFFFF" cx="21.875" cy="238.75" r="1.5"/>
<path fill="#DD1414" d="M20.622,235.574c0,0-0.355-0.402-0.73-0.402s-0.73,0.35-0.73,0.35v-1.539c0,0,0.378,0.254,0.722,0.254
	c0.344,0,0.739-0.311,0.739-0.311L20.622,235.574L20.622,235.574z"/>
<text transform="matrix(-1.346898e-010 1 -1 -1.346898e-010 15.3242 105.5)" fill="#FFFFFF" font-family="'MyriadPro-Semibold'" font-size="20">Concurrency</text>
<g>
	<polygon fill="#DD1414" points="27.469,236.49 30.068,240.992 27.469,245.495 22.27,245.495 19.672,240.992 22.27,236.49 	"/>
	<polygon fill="#2B2A28" points="32.667,236.49 35.268,240.992 32.667,245.495 27.469,245.495 24.869,240.992 27.469,236.49 	"/>
	<polygon fill="#DD1414" points="17.072,236.49 19.672,240.992 17.072,245.495 11.874,245.495 9.274,240.992 11.874,236.49 	"/>
	<polygon fill="#2B2A28" points="22.271,236.49 24.869,240.992 22.271,245.495 17.072,245.495 14.473,240.992 17.072,236.49 	"/>
	<polygon fill="#2B2A28" points="11.876,236.49 14.473,240.992 11.876,245.495 6.677,245.495 4.078,240.992 6.677,236.49 	"/>
	<rect x="7.373" y="240.992" fill="#2B2A28" width="23.334" height="7.482"/>
</g>
<g>
	<polygon fill="#DD1414" points="17.072,236.49 14.473,231.988 17.072,227.484 22.271,227.484 24.87,231.988 22.271,236.49 	"/>
	<polygon fill="#2B2A28" points="11.874,236.49 9.274,231.988 11.874,227.484 17.072,227.484 19.672,231.988 17.072,236.49 	"/>
	<polygon fill="#DD1414" points="27.469,236.49 24.87,231.988 27.469,227.484 32.667,227.484 35.268,231.988 32.667,236.49 	"/>
	<polygon fill="#2B2A28" points="22.27,236.49 19.672,231.988 22.27,227.484 27.469,227.484 30.068,231.988 27.469,236.49 	"/>
	<polygon fill="#2B2A28" points="32.664,236.49 30.068,231.988 32.664,227.484 37.863,227.484 40.463,231.988 37.863,236.49 	"/>
	<rect x="13.835" y="224.505" fill="#2B2A28" width="23.333" height="7.483"/>
</g>
<rect x="27.422" y="228.58" fill="#2B2A28" width="13.381" height="16.915"/>
</svg>
