<?xml version="1.0" encoding="utf-8"?>
<!-- Generator: Adobe Illustrator 16.0.0, SVG Export Plug-In . SVG Version: 6.00 Build 0)  -->
<!DOCTYPE svg PUBLIC "-//W3C//DTD SVG 1.1//EN" "http://www.w3.org/Graphics/SVG/1.1/DTD/svg11.dtd">
<svg version="1.1" id="Capa_1" xmlns="http://www.w3.org/2000/svg" xmlns:xlink="http://www.w3.org/1999/xlink" x="0px" y="0px"
	 width="130px" height="765px" viewBox="0 0 130 765" enable-background="new 0 0 130 765" xml:space="preserve">
<rect x="-1" fill="#252B21" width="133" height="766"/>
<text transform="matrix(1.102 0 0 1 25.8594 695.5957)" fill="#FFFFFF" font-family="'MyriadPro-Regular'" font-size="13">M A N N I N G</text>
<text transform="matrix(-1.346898e-010 1 -1 -1.346898e-010 49 166.7031)" fill="#FFFFFF" font-family="'MyriadPro-Semibold'" font-size="68">C#</text>
<g>
	<polygon fill="#FFFFFF" points="70,675.5 56.5,675.5 50.5,639.25 64,639.25 	"/>
	<polyline fill="#FFFFFF" points="76.5,675.5 70.5,639.25 84,639.25 90,675.5 	"/>
	<polygon fill="#FFFFFF" points="48.25,675.5 45.75,675.5 49.75,639.25 52.25,639.25 	"/>
	<polygon fill="#FFFFFF" points="70.25,675.5 67.75,675.5 69.75,639.25 72.25,639.25 	"/>
</g>
<text transform="matrix(-1.346898e-010 1 -1 -1.346898e-010 49 277.7031)" fill="#A3A8AA" font-family="'MyriadPro-Semibold'" font-size="42.9633">En Profundidad</text>
</svg>
