<?xml version="1.0" encoding="utf-8"?>
<!-- Generator: Adobe Illustrator 16.0.0, SVG Export Plug-In . SVG Version: 6.00 Build 0)  -->
<!DOCTYPE svg PUBLIC "-//W3C//DTD SVG 1.1//EN" "http://www.w3.org/Graphics/SVG/1.1/DTD/svg11.dtd">
<svg version="1.1" id="Capa_1" xmlns="http://www.w3.org/2000/svg" xmlns:xlink="http://www.w3.org/1999/xlink" x="0px" y="0px"
	 width="120px" height="701.25px" viewBox="0 0 120 701.25" enable-background="new 0 0 120 701.25" xml:space="preserve">
<rect x="-8.5" y="-9.5" fill="#3E2D35" stroke="#000000" stroke-miterlimit="10" width="138" height="717"/>
<text transform="matrix(1 0 0 1 49.1626 47.3706)" fill="#DB6245" font-family="'MyriadPro-Regular'" font-size="32.8482">H</text>
<text transform="matrix(1 0 0 1 51.7085 74.4707)" fill="#DB6245" font-family="'MyriadPro-Regular'" font-size="32.8482">T</text>
<text transform="matrix(1 0 0 1 46.6665 101.5703)" fill="#DB6245" font-family="'MyriadPro-Regular'" font-size="32.8482">M</text>
<text transform="matrix(1 0 0 1 52.1191 128.6704)" fill="#DB6245" font-family="'MyriadPro-Regular'" font-size="32.8482">L</text>
<text transform="matrix(1 0 0 1 52.4189 152.4849)" fill="#FFFFFF" font-family="'MyriadPro-Regular'" font-size="24.6361">&amp;</text>
<text transform="matrix(1 0 0 1 50.3452 182.8696)" fill="#08B2EB" font-family="'MyriadPro-Regular'" font-size="32.8482">C</text>
<text transform="matrix(1 0 0 1 51.7739 209.9692)" fill="#08B2EB" font-family="'MyriadPro-Regular'" font-size="32.8482">S</text>
<text transform="matrix(1 0 0 1 51.7739 237.0693)" fill="#08B2EB" font-family="'MyriadPro-Regular'" font-size="32.8482">S</text>
<text transform="matrix(-1.346898e-010 1 -1 -1.346898e-010 52.5029 270.2607)" fill="#FFFFFF" font-family="'MyriadPro-Semibold'" font-size="20">Diseño y creación de sitios web</text>
<text transform="matrix(-1.346898e-010 1 -1 -1.346898e-010 52.5029 572.2607)" fill="#FFFFFF" font-family="'MyriadPro-Regular'" font-size="16">JON DUCKETT</text>
</svg>
