<?xml version="1.0" encoding="utf-8"?>
<!-- Generator: Adobe Illustrator 16.0.0, SVG Export Plug-In . SVG Version: 6.00 Build 0)  -->
<!DOCTYPE svg PUBLIC "-//W3C//DTD SVG 1.1//EN" "http://www.w3.org/Graphics/SVG/1.1/DTD/svg11.dtd">
<svg version="1.1" id="Layer_1" xmlns="http://www.w3.org/2000/svg" xmlns:xlink="http://www.w3.org/1999/xlink" x="0px" y="0px"
	 width="560px" height="560px" viewBox="0 0 560 560" enable-background="new 0 0 560 560" xml:space="preserve">
<circle fill="#FFFFFF" cx="268.5" cy="282.75" r="240.25"/>
<circle cx="267" cy="283.25" r="192.75"/>
<path fill="#FFFFFF" d="M352.583,248.284c5.681-7.512,9.902-15.274,8.063-25.02c-1.005-5.323-2.612-7.308-7.945-8.394
	c-7.799-1.588-15.142,0.284-22.461,2.984c-6.767,2.497-13.705,4.553-20.639,6.552c-4.11,1.185-8.413,1.694-12.535,2.844
	c-7.336,2.044-18.393-1.121-22.927-7.099c-2.232-2.944-3.533-6.458-3.857-10.186c-0.559-6.432,0.676-12.496,3.239-18.488
	c3.038-7.102,7.064-13.521,11.845-19.489c1.637-2.042,3.767-3.724,5.816-5.393c4.157-3.386,8.312-6.792,12.661-9.917
	c3.195-2.294,6.671-4.204,10.075-6.193c3.706-2.166,7.46-4.246,11.214-6.325c4.142-2.294,8.235-4.695,12.498-6.737
	c1.628-0.78,3.699-1.025,5.507-0.86c0.856,0.078,2.004,1.592,2.256,2.64c0.456,1.893,0.167,3.62-2.022,4.826
	c-7.663,4.221-15.276,8.545-22.762,13.074c-4.749,2.873-9.474,5.884-13.763,9.38c-3.384,2.761-5.938,6.512-9.127,9.541
	c-4.11,3.905-6.48,8.863-9.052,13.731c-2.083,3.944-3.37,8.142-3.328,12.606c0.059,6.316,3.681,11.634,11.237,11.396
	c5.955-0.188,11.983-0.905,17.786-2.233c8-1.83,15.793-4.55,23.724-6.709c6.198-1.688,12.428-3.159,18.99-2.697
	c7.146,0.503,12.769,3.727,17.139,9.128c1.149,1.424,1.728,3.625,1.846,5.516c0.486,7.664-0.198,15.043-3.689,22.242
	c-3.377,6.966-7.076,13.681-12.518,19.063c-4.472,4.422-9.553,8.453-14.956,11.658c-10.856,6.44-22.106,12.215-33.211,18.235
	c-8.739,4.737-17.546,9.354-26.246,14.162c-6.339,3.503-12.535,7.263-18.836,10.836c-2.008,1.139-4.188,1.972-6.224,3.067
	c-6.731,3.622-13.436,7.296-20.144,10.96c-3.379,1.846-6.814,3.607-10.081,5.638c-1.151,0.719-2.366,1.995-2.708,3.248
	c-1.903,6.975-3.511,14.027-5.292,21.036c-1.378,5.428-2.524,10.946-4.379,16.211c-2.721,7.728-5.969,15.269-9.024,22.878
	c-1.029,2.563-1.983,5.183-3.265,7.62c-4.255,8.099-9.251,15.717-15.269,22.636c-2.592,2.979-5,6.154-7.84,8.874
	c-6.095,5.834-12.993,10.56-20.516,14.462c-10.01,5.19-20.624,8.062-31.743,9.515c-8.836,1.154-17.431,0.856-25.428-3.441
	c-4.849-2.604-7.718-7.079-9.363-12.174c-2.808-8.702-0.598-17.234,1.394-25.729c0.366-1.563,0.728-3.158,1.374-4.614
	c2.456-5.546,4.508-11.369,7.709-16.461c2.929-4.658,6.792-8.899,10.881-12.621c5.375-4.896,11.076-9.573,17.189-13.48
	c6.16-3.942,13.001-6.813,19.531-10.181c5.512-2.842,11.009-5.711,16.504-8.589c6.919-3.623,13.797-7.328,20.753-10.882
	c7.426-3.795,14.831-7.653,22.426-11.083c3.493-1.578,4.431-4.527,5.272-7.5c2.192-7.754,3.984-15.619,6.067-23.403
	c2.263-8.462,4.632-16.893,7.036-25.316c1.464-5.127,3.093-10.209,4.615-15.32c0.176-0.59,0.143-1.243,0.235-2.146
	c-5.128,4.984-11.047,8.249-17.299,10.827c-4.066,1.675-8.539,2.322-12.846,1.126c-6.229-1.73-9.319-6.741-11.688-12.316
	c-1.726-4.063-2.452-8.297-2.222-12.678c0.311-5.942,0.415-11.919,1.215-17.799c0.496-3.646,2.123-7.136,3.233-10.7
	c1.488-4.775,2.913-9.57,4.467-14.323c1.332-4.07,2.928-8.058,4.185-12.149c1.201-3.912-2.083-9.83-5.917-11.072
	c-2.472-0.802-5.044,0.209-6.669,2.366c-3.469,4.602-4.857,9.972-6.177,15.444c-1.144,4.744-2.835,9.354-4.135,14.065
	c-1.118,4.053-1.939,8.187-3.042,12.244c-2.736,10.079-5.556,20.135-8.345,30.2c-1.928,6.96-3.788,13.938-5.828,20.867
	c-0.75,2.55-1.577,5.202-3.003,7.396c-1.559,2.395-4.374,1.994-6.767,1.303c-2.187-0.634-2.694-2.377-2.892-4.675
	c-0.502-5.837,2.088-10.897,3.476-16.253c1.95-7.537,4.01-15.044,6.05-22.557c2.601-9.581,5.151-19.177,7.871-28.724
	c2.104-7.384,3.896-14.927,6.831-21.981c2.545-6.114,5.003-12.613,10.668-16.886c8.204-6.188,16.296-5.958,23.837,1.096
	c2.432,2.276,3.564,5.665,3.829,9.268c0.581,7.971-1.642,15.441-3.642,22.97c-1.809,6.81-3.706,13.597-5.403,20.433
	c-0.738,2.969-1.321,6.021-1.532,9.066c-0.261,3.785-0.314,7.621-0.001,11.397c0.396,4.768,5.257,9.759,9.953,9.693
	c2.577-0.036,5.474-1.311,7.622-2.863c4.162-3.009,7.976-6.521,11.769-10.007c1.509-1.386,2.758-3.146,3.809-4.923
	c2.055-3.473,4.071-6.991,5.757-10.648c1.637-3.552,2.994-7.254,4.2-10.979c1.951-6.032,3.691-12.133,5.494-18.213
	c1.875-6.322,3.704-12.657,5.583-18.975c0.997-3.345,3.635-4.839,6.943-4.002c2.023,0.511,4.036,4.774,3.408,7.369
	c-1.259,5.226-2.509,10.454-3.875,15.653c-2.406,9.158-4.855,18.305-7.359,27.435c-2.7,9.844-5.522,19.655-8.217,29.501
	c-2.656,9.702-5.18,19.441-7.835,29.143c-2.733,9.985-5.536,19.954-8.348,29.915c-0.789,2.791-1.724,5.539-2.748,8.804
	c3.917-1.797,7.183-3.164,10.336-4.761c7.04-3.565,14.072-7.156,21.02-10.896c9.542-5.137,19.03-10.375,28.49-15.663
	c5.47-3.059,10.803-6.365,16.268-9.434c3.879-2.176,8.046-3.877,11.787-6.258c7.802-4.963,15.571-10.014,23.027-15.472
	C345.596,255.642,348.862,251.824,352.583,248.284 M142.646,380.771c-13.602,7.349-22.932,18.197-26.288,33.448
	c-1.134,5.152-1.478,10.652,1.66,15.617c4.764,7.537,12.115,9.784,20.213,8.834c5.682-0.668,11.293-2.719,16.7-4.772
	c6.327-2.406,12.551-5.344,17.389-10.261c14.532-14.773,25.267-31.996,32.019-51.575c2.53-7.338,4.252-14.954,6.328-22.445
	c0.609-2.2,1.168-4.415,1.751-6.623c-0.184-0.169-0.368-0.34-0.551-0.508C188.91,355.177,165.954,367.869,142.646,380.771z"/>
<path fill="#359EF9" d="M142.823,380.667c23.131-12.798,46.088-25.49,69.044-38.182c0.184,0.168,0.368,0.339,0.551,0.508
	c-0.582,2.208-1.141,4.423-1.751,6.623c-2.076,7.491-3.798,15.107-6.328,22.445c-6.752,19.579-17.487,36.802-32.019,51.575
	c-4.838,4.918-11.062,7.855-17.389,10.261c-5.406,2.054-11.018,4.104-16.7,4.772c-8.099,0.95-15.45-1.297-20.213-8.834
	c-3.138-4.965-2.794-10.465-1.66-15.617C119.714,398.968,129.044,388.119,142.823,380.667z"/>
</svg>
