<?xml version="1.0" encoding="utf-8"?>
<!-- Generator: Adobe Illustrator 16.0.0, SVG Export Plug-In . SVG Version: 6.00 Build 0)  -->
<!DOCTYPE svg PUBLIC "-//W3C//DTD SVG 1.1//EN" "http://www.w3.org/Graphics/SVG/1.1/DTD/svg11.dtd">
<svg version="1.1" id="Capa_1" xmlns="http://www.w3.org/2000/svg" xmlns:xlink="http://www.w3.org/1999/xlink" x="0px" y="0px"
	 width="1080px" height="500px" viewBox="0 0 1080 500" enable-background="new 0 0 1080 500" xml:space="preserve">
<rect fill="#BEB3A7" width="1080" height="500"/>
<rect x="11" fill="#603813" width="6" height="500"/>
<rect x="34" fill="#603813" width="6" height="500"/>
<rect x="57" fill="#603813" width="6" height="500"/>
<rect x="80" fill="#603813" width="6" height="500"/>
<rect x="103" fill="#603813" width="6" height="500"/>
<rect x="126" fill="#603813" width="6" height="500"/>
<rect x="149" fill="#603813" width="6" height="500"/>
<rect x="172" fill="#603813" width="6" height="500"/>
<rect x="195" fill="#603813" width="6" height="500"/>
<rect x="218" fill="#603813" width="6" height="500"/>
<rect x="241" fill="#603813" width="6" height="500"/>
<rect x="264" fill="#603813" width="6" height="500"/>
<rect x="287" fill="#603813" width="6" height="500"/>
<rect x="310" fill="#603813" width="6" height="500"/>
<rect x="333" fill="#603813" width="6" height="500"/>
<rect x="356" fill="#603813" width="6" height="500"/>
<rect x="379" fill="#603813" width="6" height="500"/>
<rect x="402" fill="#603813" width="6" height="500"/>
<rect x="425" fill="#603813" width="6" height="500"/>
<rect x="448" fill="#603813" width="6" height="500"/>
<rect x="471" fill="#603813" width="6" height="500"/>
<rect x="494" fill="#603813" width="6" height="500"/>
<rect x="517" fill="#603813" width="6" height="500"/>
<rect x="540" fill="#603813" width="6" height="500"/>
<rect x="563" fill="#603813" width="6" height="500"/>
<rect x="586" fill="#603813" width="6" height="500"/>
<rect x="609" fill="#603813" width="6" height="500"/>
<rect x="632" fill="#603813" width="6" height="500"/>
<rect x="655" fill="#603813" width="6" height="500"/>
<rect x="678" fill="#603813" width="6" height="500"/>
<rect x="701" fill="#603813" width="6" height="500"/>
<rect x="724" fill="#603813" width="6" height="500"/>
<rect x="747" fill="#603813" width="6" height="500"/>
<rect x="770" fill="#603813" width="6" height="500"/>
<rect x="793" fill="#603813" width="6" height="500"/>
<rect x="816" fill="#603813" width="6" height="500"/>
<rect x="839" fill="#603813" width="6" height="500"/>
<rect x="862" fill="#603813" width="6" height="500"/>
<rect x="885" fill="#603813" width="6" height="500"/>
<rect x="908" fill="#603813" width="6" height="500"/>
<rect x="931" fill="#603813" width="6" height="500"/>
<rect x="954" fill="#603813" width="6" height="500"/>
<rect x="977" fill="#603813" width="6" height="500"/>
<rect x="1000" fill="#603813" width="6" height="500"/>
<rect x="1023" fill="#603813" width="6" height="500"/>
<rect x="1046" fill="#603813" width="6" height="500"/>
<rect x="1069" fill="#603813" width="6" height="500"/>
</svg>
