<?xml version="1.0" encoding="utf-8"?>
<!-- Generator: Adobe Illustrator 16.0.0, SVG Export Plug-In . SVG Version: 6.00 Build 0)  -->
<!DOCTYPE svg PUBLIC "-//W3C//DTD SVG 1.1//EN" "http://www.w3.org/Graphics/SVG/1.1/DTD/svg11.dtd">
<svg version="1.1" id="Capa_1" xmlns="http://www.w3.org/2000/svg" xmlns:xlink="http://www.w3.org/1999/xlink" x="0px" y="0px"
	 width="1080px" height="1500px" viewBox="0 0 1080 1500" enable-background="new 0 0 1080 1500" xml:space="preserve">
<g>
	<path fill="#414241" d="M230.572,1252l-69.69,77.677c0,0-3.706,4.436-5.117,9.198c-1.411,4.765-1.764,12.362-1.764,12.362
		l776.49,1.507c0,0,0.794-11.908-1.19-16.938c-1.984-5.027-9.528-10.895-9.528-10.895L851.89,1252H230.572z"/>
	<polygon fill="#343534" points="748.146,1268 785.109,1329 899.396,1329 848.449,1268 	"/>
	<polygon fill="#484948" points="750.175,1268 784.934,1325.329 896.592,1325.442 848.449,1268 	"/>
	<polygon fill="#343534" points="232.602,1268 186,1325.491 186,1329 664,1329 664,1325.92 647.313,1268 	"/>
	<polygon fill="#484948" points="232.514,1268 185.759,1325.329 664.301,1325.677 647.313,1268 	"/>
	<polygon fill="#343534" points="769,1325.686 769,1329 685.423,1329 681,1317.903 681,1313.051 707.162,1312.919 704.078,1307.424 
		704.303,1304 728.914,1304 734.827,1313.336 762.852,1313.59 	"/>
	<polygon fill="#484948" points="769.053,1325.686 686.305,1325.313 681.188,1313.051 707.257,1312.919 709.771,1312.805 
		704.303,1304 728.914,1304 734.827,1313.336 762.879,1313.59 	"/>
	<polygon fill="#343534" points="750,1289.693 750,1293 666.367,1293 657,1271.037 657,1268 685.247,1268 736.898,1268 	"/>
	<polygon fill="#484948" points="749.998,1289.531 667.25,1289.078 656.84,1268 736.898,1268 	"/>
	<polygon fill="#484948" points="238.336,1262 243.188,1256.075 822.426,1256.568 827.012,1262 	"/>
	<polygon fill="#343534" points="238.689,1265.648 827.304,1265.875 827.012,1262 238.336,1262 	"/>
</g>
<path opacity="0.1" fill="#1D1E1D" enable-background="new    " d="M154.75,1350c0,0,0.25-10.313,3.375-13.938
	s7.542-3.229,7.542-3.229l291.667,0.834L874.666,1350H154.75z"/>
<path fill="#323332" d="M612.589,1099.703c-0.267,0.921-0.803-0.551-0.803-0.551H465.542c0,0-0.239,1.479-0.419,0.758
	c-0.181-0.723-0.123-0.628-0.123-0.628v-287.9c0,0-0.084-1.162,0.148-1.996c0.231-0.826,0.535-0.886,0.535-0.886h146.038
	c0,0,0.595,0,0.885,1.015c0.291,1.016,0.395,1.987,0.395,1.987v287.986C613,1099.488,612.828,1098.895,612.589,1099.703z"/>
<rect x="260.034" y="132.027" fill="#575957" width="537" height="944"/>
<path fill="#DDE8DD" d="M590.667,1417"/>
<g>
	<g>
		<path fill="#323332" d="M329.926,1152.573c-0.959,0.181-2.485,0.427-2.485,0.427h-50.602c0,0-1.304-0.241-1.953-0.387
			c-0.649-0.146-0.886-0.662-0.886-0.662v-11.392c0,0,32.333-25.51,84-36.284C409.667,1093.5,465,1093,465,1093h74v22.4
			c0,0-83.56-2.598-130.28,4.752c-46.72,7.349-70.437,23.456-70.437,23.456l-7.291,8.385
			C330.992,1151.993,330.79,1152.41,329.926,1152.573z"/>
		<path fill="#3F443F" d="M329.926,1148.573c-0.959,0.181-2.485,0.427-2.485,0.427h-50.602c0,0-1.304-0.241-1.953-0.387
			c-0.649-0.146-0.886-0.662-0.886-0.662v-10.284l5.186-4.809c0,0,27.147-21.809,78.814-32.583C409.667,1089.5,465,1089,465,1089h74
			v22.4c0,0-83.56-2.598-130.28,4.752c-46.72,7.349-71.637,25.599-71.637,25.599l-6.091,6.242
			C330.992,1147.993,330.79,1148.41,329.926,1148.573z"/>
	</g>
	<g>
		<path fill="#323332" d="M747.074,1152.573c0.959,0.181,2.484,0.427,2.484,0.427h50.603c0,0,1.304-0.241,1.953-0.387
			c0.648-0.146,0.886-0.662,0.886-0.662v-11.392c0,0-32.333-25.51-84-36.284C667.333,1093.5,612,1093,612,1093h-74v22.4
			c0,0,83.56-2.598,130.279,4.752c46.721,7.349,70.438,23.456,70.438,23.456l7.291,8.385
			C746.008,1151.993,746.21,1152.41,747.074,1152.573z"/>
		<path fill="#3F443F" d="M747.074,1148.573c0.959,0.181,2.484,0.427,2.484,0.427h50.603c0,0,1.304-0.241,1.953-0.387
			c0.648-0.146,0.886-0.662,0.886-0.662v-10.284l-5.187-4.809c0,0-27.146-21.809-78.813-32.583C667.333,1089.5,612,1089,612,1089
			h-74v22.4c0,0,83.56-2.598,130.279,4.752c46.721,7.349,71.637,25.599,71.637,25.599l6.092,6.242
			C746.008,1147.993,746.21,1148.41,747.074,1148.573z"/>
	</g>
</g>
<path fill="#575957" d="M251.784,128.402c-2,1.875-1.75,4.538-1.75,4.538v942.087c0,0-0.125,2.75,1.5,4.25s3.667,1.75,3.667,1.75
	h567.401c0,0,2.649-0.423,4.083-1.586c1.433-1.163,1.35-3.5,1.35-3.5V132.524c0,0,0.039-2.293-1.75-4.013
	c-1.609-1.548-3.266-1.484-3.266-1.484H255.451C255.451,127.027,253.784,126.527,251.784,128.402z M267.921,135.027h512.172
	c0,0,1.701,0.146,3.154,1.666c1.613,1.689,1.785,4.148,1.785,4.148v927.187c0,0-0.131,2.296-1.424,3.438
	c-1.293,1.145-3.893,1.561-3.893,1.561H267.695c0,0-1.842-0.246-3.308-1.721c-1.466-1.473-1.353-4.176-1.353-4.176v-925.88
	c0,0-0.226-2.822,1.579-4.666C266.418,134.742,267.921,135.027,267.921,135.027z"/>
<g>
	<path fill="#3F443F" d="M986,1296c0,0,16.5,5.82,35.5,4.41s32.167-14.409,36.5-22.409s-3-38.001-23.5-48.501
		s-46.5-11.463-46.5-11.463s-32.666,1.376-46.333,6.838S922,1234.336,919,1239.003s-2.667,8.333,2,15s18.668,18.668,29.334,24.334
		S986,1296,986,1296z"/>
	<path fill="#1B1C1B" d="M928.25,1244.25c0,0,21.25-4.75,36.75-2.5s27,8.918,34,17.584s11.125,28.453,4.5,32.486
		c-3.375,2.055-6.375,3.097-8.167,3.097c-1.646,0-5.958,0-9.5-1.5c-2.266-0.959-20.458-10.542-26.833-13.917s-22.975-15.922-26.5-19
		c-3.938-3.438-10.208-9.125-9.375-12.125S928.25,1244.25,928.25,1244.25z"/>
	<path fill="#1B1C1B" d="M943.597,1224.172c0,0,12.903-1.922,15.528-1.297s3.219,0.938,3.219,0.938s0.438,0.563,0,0.595
		c-0.438,0.03-2.438-0.625-4.155-0.656c-1.719-0.031-16.233,1.013-16.233,1.013L943.597,1224.172z"/>
</g>
</svg>
