<?xml version="1.0" encoding="utf-8"?>
<!-- Generator: Adobe Illustrator 16.0.0, SVG Export Plug-In . SVG Version: 6.00 Build 0)  -->
<!DOCTYPE svg PUBLIC "-//W3C//DTD SVG 1.1//EN" "http://www.w3.org/Graphics/SVG/1.1/DTD/svg11.dtd">
<svg version="1.1" id="Capa_1" xmlns="http://www.w3.org/2000/svg" xmlns:xlink="http://www.w3.org/1999/xlink" x="0px" y="0px"
	 width="1080px" height="1080px" viewBox="0 0 1080 1080" enable-background="new 0 0 1080 1080" xml:space="preserve">
<g>
	<path fill="#414241" d="M230.572,832l-69.69,77.677c0,0-3.706,4.435-5.117,9.198c-1.411,4.765-1.764,12.362-1.764,12.362
		l776.49,1.507c0,0,0.794-11.908-1.19-16.937c-1.985-5.028-9.528-10.895-9.528-10.895L851.89,832H230.572z"/>
	<polygon fill="#343534" points="748.146,848 785.109,909 899.395,909 848.449,848 	"/>
	<polygon fill="#484948" points="750.175,848 784.934,905.329 896.592,905.442 848.449,848 	"/>
	<polygon fill="#343534" points="232.602,848 186,905.491 186,909 664,909 664,905.92 647.313,848 	"/>
	<polygon fill="#484948" points="232.514,848 185.759,905.329 664.301,905.677 647.313,848 	"/>
	<polygon fill="#343534" points="769,905.686 769,909 685.423,909 681,897.903 681,893.051 707.162,892.919 704.078,887.424 
		704.303,884 728.914,884 734.827,893.336 762.852,893.59 	"/>
	<polygon fill="#484948" points="769.053,905.686 686.305,905.313 681.188,893.051 707.257,892.919 709.771,892.805 704.303,884 
		728.914,884 734.827,893.336 762.879,893.59 	"/>
	<polygon fill="#343534" points="750,869.693 750,873 666.367,873 657,851.037 657,848 685.247,848 736.898,848 	"/>
	<polygon fill="#484948" points="749.998,869.531 667.25,869.078 656.84,848 736.898,848 	"/>
	<polygon fill="#484948" points="238.336,842 243.188,836.075 822.426,836.568 827.012,842 	"/>
	<polygon fill="#343534" points="238.689,845.648 827.304,845.875 827.012,842 238.336,842 	"/>
</g>
<path opacity="0.1" fill="#1D1E1D" d="M154.75,930c0,0,0.25-10.313,3.375-13.938s7.542-3.229,7.542-3.229l291.667,0.834L874.666,930
	H154.75z"/>
<rect x="67" y="93" fill="#575957" width="944" height="537"/>
<path fill="#DDE8DD" d="M590.667,997"/>
<g>
	<g>
		<path fill="#323332" d="M329.926,732.573c-0.959,0.181-2.485,0.427-2.485,0.427h-50.602c0,0-1.304-0.241-1.953-0.387
			c-0.649-0.145-0.886-0.662-0.886-0.662v-11.391c0,0,32.333-25.51,84-36.285S465,673,465,673h74v22.4c0,0-83.56-2.597-130.28,4.752
			s-70.437,23.456-70.437,23.456l-7.291,8.385C330.992,731.993,330.79,732.41,329.926,732.573z"/>
		<path fill="#3F443F" d="M329.926,728.573c-0.959,0.181-2.485,0.427-2.485,0.427h-50.602c0,0-1.304-0.241-1.953-0.387
			c-0.649-0.145-0.886-0.662-0.886-0.662v-10.284l5.186-4.809c0,0,27.147-21.808,78.814-32.583S465,669,465,669h74v22.4
			c0,0-83.56-2.597-130.28,4.752s-71.637,25.599-71.637,25.599l-6.091,6.242C330.992,727.993,330.79,728.41,329.926,728.573z"/>
	</g>
	<g>
		<path fill="#323332" d="M747.074,732.573c0.959,0.181,2.485,0.427,2.485,0.427h50.602c0,0,1.304-0.241,1.953-0.387
			c0.649-0.145,0.886-0.662,0.886-0.662v-11.391c0,0-32.333-25.51-84-36.285S612,673,612,673h-74v22.4
			c0,0,83.56-2.597,130.279,4.752c46.721,7.349,70.438,23.456,70.438,23.456l7.291,8.385
			C746.008,731.993,746.21,732.41,747.074,732.573z"/>
		<path fill="#3F443F" d="M747.074,728.573c0.959,0.181,2.485,0.427,2.485,0.427h50.602c0,0,1.304-0.241,1.953-0.387
			c0.649-0.145,0.886-0.662,0.886-0.662v-10.284l-5.186-4.809c0,0-27.147-21.808-78.814-32.583S612,669,612,669h-74v22.4
			c0,0,83.56-2.597,130.279,4.752c46.721,7.349,71.637,25.599,71.637,25.599l6.092,6.242
			C746.008,727.993,746.21,728.41,747.074,728.573z"/>
	</g>
</g>
<path fill="#323332" d="M612.589,680.063c-0.267,0.104-0.803-0.063-0.803-0.063H465.542c0,0-0.239,0.168-0.419,0.086
	c-0.181-0.082-0.123-0.071-0.123-0.071v-32.688c0,0-0.084-0.132,0.148-0.226s0.536-0.101,0.536-0.101h146.038
	c0,0,0.594,0,0.884,0.115c0.291,0.115,0.395,0.226,0.395,0.226v32.697C613,680.038,612.828,679.971,612.589,680.063z"/>
<path fill="#575957" d="M1014.625,84.75c-1.875-2-4.538-1.75-4.538-1.75H68c0,0-2.75-0.125-4.25,1.5S62,88.167,62,88.167v567.401
	c0,0,0.423,2.65,1.586,4.083s3.5,1.35,3.5,1.35h943.417c0,0,2.293,0.039,4.013-1.75c1.547-1.609,1.484-3.266,1.484-3.266V88.417
	C1016,88.417,1016.5,86.75,1014.625,84.75z M1008,100.887v512.173c0,0-0.146,1.701-1.666,3.154
	c-1.689,1.613-4.148,1.785-4.148,1.785H74.999c0,0-2.296-0.131-3.439-1.424c-1.144-1.293-1.56-3.892-1.56-3.892V100.661
	c0,0,0.246-1.842,1.72-3.308S75.896,96,75.896,96h925.88c0,0,2.823-0.226,4.666,1.579S1008,100.887,1008,100.887z"/>
<g>
	<path fill="#3F443F" d="M986,876c0,0,16.5,5.82,35.5,4.41s32.167-14.409,36.5-22.409s-3-38.001-23.5-48.501
		S988,798.037,988,798.037s-32.666,1.376-46.333,6.838S922,814.336,919,819.003s-2.667,8.333,2,15s18.668,18.668,29.334,24.334
		S986,876,986,876z"/>
	<path fill="#1B1C1B" d="M928.25,824.25c0,0,21.25-4.75,36.75-2.5s27,8.918,34,17.584s11.125,28.453,4.5,32.486
		c-3.375,2.055-6.375,3.097-8.167,3.097c-1.646,0-5.958,0-9.5-1.5c-2.266-0.959-20.458-10.542-26.833-13.917s-22.975-15.922-26.5-19
		c-3.938-3.438-10.208-9.125-9.375-12.125S928.25,824.25,928.25,824.25z"/>
	<path fill="#1B1C1B" d="M943.597,804.172c0,0,12.903-1.922,15.528-1.297s3.219,0.938,3.219,0.938s0.438,0.563,0,0.594
		s-2.438-0.625-4.156-0.656s-16.233,1.013-16.233,1.013L943.597,804.172z"/>
</g>
</svg>
