<?xml version="1.0" encoding="utf-8"?>
<!-- Generator: Adobe Illustrator 16.0.0, SVG Export Plug-In . SVG Version: 6.00 Build 0)  -->
<!DOCTYPE svg PUBLIC "-//W3C//DTD SVG 1.1//EN" "http://www.w3.org/Graphics/SVG/1.1/DTD/svg11.dtd">
<svg version="1.1" id="Capa_1" xmlns="http://www.w3.org/2000/svg" xmlns:xlink="http://www.w3.org/1999/xlink" x="0px" y="0px"
	 width="90px" height="637.5px" viewBox="0 0 90 637.5" enable-background="new 0 0 90 637.5" xml:space="preserve">
<rect x="-10.5" y="-11.5" fill="#FAD021" stroke="#000000" stroke-miterlimit="10" width="108" height="655"/>
<text transform="matrix(-1.346898e-010 1 -1 -1.346898e-010 43.3242 71.5)" font-family="'MyriadPro-Regular'" font-size="17">Scrum: El arte de hacer el doble de trabajo en la mitad de tiempo</text>
<text transform="matrix(-1.346898e-010 1 -1 -1.346898e-010 41.3242 552.5)" font-family="'MyriadPro-Bold'" font-size="19">OCEANO</text>
<g>
	<rect x="20" y="38" width="10" height="10"/>
	<rect x="30" y="48" width="10" height="10"/>
	<rect x="10" y="48" width="10" height="10"/>
	<rect y="38" width="10" height="10"/>
</g>
<g>
	<rect x="60" y="38" width="10" height="10"/>
	<rect x="70" y="48" width="10" height="10"/>
	<rect x="50" y="48" width="10" height="10"/>
	<rect x="40" y="38" width="10" height="10"/>
</g>
<g>
	<rect x="100" y="38" width="10" height="10"/>
	<rect x="110" y="48" width="10" height="10"/>
	<rect x="90" y="48" width="10" height="10"/>
	<rect x="80" y="38" width="10" height="10"/>
</g>
</svg>
