<?xml version="1.0" encoding="utf-8"?>
<!-- Generator: Adobe Illustrator 16.0.0, SVG Export Plug-In . SVG Version: 6.00 Build 0)  -->
<!DOCTYPE svg PUBLIC "-//W3C//DTD SVG 1.1//EN" "http://www.w3.org/Graphics/SVG/1.1/DTD/svg11.dtd">
<svg version="1.1" id="Capa_1" xmlns="http://www.w3.org/2000/svg" xmlns:xlink="http://www.w3.org/1999/xlink" x="0px" y="0px"
	 width="100px" height="701.25px" viewBox="0 0 100 701.25" enable-background="new 0 0 100 701.25" xml:space="preserve">
<rect x="-9" y="-17.429" fill="#D6DADD" width="117" height="726.278"/>
<text transform="matrix(1.102 0 0 1 14.6279 646.915)" font-family="'MyriadPro-Regular'" font-size="11.4361">M A N N I N G</text>
<text transform="matrix(-1.346898e-010 1 -1 -1.346898e-010 36.3047 248.6011)" fill="#3C90AA" font-family="'MyriadPro-Bold'" font-size="40">UNIT TESTING</text>
<g>
	<polygon points="53.459,629.236 41.583,629.236 36.305,597.348 48.181,597.348 	"/>
	<polyline points="59.177,629.236 53.898,597.348 65.774,597.348 71.053,629.236 	"/>
	<polygon points="34.325,629.236 32.126,629.236 35.645,597.348 37.844,597.348 	"/>
	<polygon points="53.679,629.236 51.479,629.236 53.238,597.348 55.438,597.348 	"/>
</g>
<text transform="matrix(-1.346898e-010 1 -1 -1.346898e-010 38.126 103.105)" font-family="'MyriadPro-Regular'" font-size="30">the art of</text>
</svg>
